<?xml version="1.0" encoding="UTF-8"?><svg id="a" xmlns="http://www.w3.org/2000/svg" viewBox="0 0 2042.53 1297.61"><defs><style>.b{fill:#fff;}.c{fill:#424242;}.d{fill:#82bd00;}</style></defs><path class="c" d="M565.63,923.9h0c-60.46,60.21-179.12,237.91-358.23,237.91v-237.91h358.23Z"/><path class="d" d="M1591.05,134.82H438.29c-126.99,0-230.89,103.9-230.89,230.89v334.35c0,2.83,.11,5.63,.22,8.43l-.22-.09v453.4s-.91-227.96,299.15-230.85H1591.05c126.99,0,230.89-103.9,230.89-230.89V365.71c0-126.99-103.9-230.89-230.89-230.89Z"/><g><path class="b" d="M331.39,555.23c.11-44.85,21.41-77.11,61.51-94.92,40.21-17.87,79.12-11.73,111.56,18.46,5.87,5.46,14.05,13.12,14.05,13.12,0,0,7.92-8.86,13.31-13.69,32.81-29.47,71.25-36.43,111.64-18.32,41.23,18.47,62.18,51.65,62.09,97.44-.05,28.27,.64,49.69,.61,78.59-.02,15.41-6.26,25.78-19.6,25.78s-22.84-7.96-22.01-25.78c.77-28.56,.74-47.14,.2-73.58-.86-41.94-27.57-70.69-64.24-70-36.22,.69-60.34,22.03-60.66,63.49-.19,25.54-.74,53.63,0,80.1-.11,16.87-7.04,25.78-21.43,25.78s-21.43-7.62-21.43-25.78c.77-27.86,.54-50.82,0-78.17-.74-36.82-25.91-63.82-60-65.16-33.39-1.31-62.13,24.86-64.42,61.09-1.61,25.43,0,56.7,0,82.23,0,16.82-5.4,25.78-21.23,25.78s-19.62-13.68-19.62-25.78-.37-67.91-.33-80.68"/><path class="b" d="M1089.04,492.3c-9.08,0-14.43,.14-27.23,.14-34.55,0-57.93,30.17-57.08,64.34,.82,32.92,25.43,58.72,57.99,60.79,32.13,2.05,59.53-20.02,64.96-53.31,1.74-10.66,1.58-21.69,1.63-32.56,.09-17.65,0-39.12,0-39.12,0,0-17.87-.42-40.27-.28m81.42-19.33c0,28.22,.72,56.46-.15,84.64-1.72,56.45-38.91,101.87-100.74,101.87-53.32,0-100.43-39.23-106.9-93.17-6.52-54.42,31.03-104.55,86.88-113.77,18.68-3.08,33.19-2.35,57.08-2.35l21.81-.25v-46.92c0-18.79-.48-37.59,21.04-37.59s21.34,23.35,21.04,37.59c-.58,28.2-.17,41.72-.17,69.94h.11Z"/><path class="b" d="M1348.5,519.85c-11.69-25.58-36.39-33.36-65.5-26-23.8,6.03-42.83,25.53-42.48,53.45,35.92-9.13,71.38-18.15,107.98-27.46m30.93,67.45c10.9,5.93,14.17,19.15,6.38,30.4-17.79,25.64-50.4,45.9-100.04,40.01-48.33-5.73-87.71-45.57-90.97-93.9-3.47-51.32,27.93-97.17,75.31-110.01,50.37-13.63,100.73,9.77,122.6,56.98,14.17,36.53,9.16,39.58-21.06,46.75-40.41,9.6-80.53,20.29-121.44,30.62,11.54,25.16,56.19,38.87,87,17.67q9.95-6.83,17.35-12.79c6.01-4.82,12.57-10.87,24.86-5.72"/><path class="b" d="M834.85,617.94c34.13-.26,62.33-28.41,62.55-62.43,.2-33.1-29.05-62.55-62.51-62.92-35.45-.4-63.35,28.19-62.72,64.23,.62,35.06,27.62,61.38,62.69,61.12m103.26-61.55c-.48,57.77-47.7,104.61-104.75,103.93-57.05-.68-103.7-48.41-103.41-105.81,.3-57.26,48.05-104.23,105.3-103.54,57.93,.69,103.35,47.24,102.86,105.41"/><path class="b" d="M1655.57,553.27c-.12-34.5-27.6-61.71-62.38-61.77-34.66-.06-62.78,27.31-63.08,61.39-.32,35.06,29.19,64.42,64.08,63.76,34.07-.64,61.5-28.96,61.38-63.38m-61.77,104.31c-58.66,.3-103.72-44.53-103.99-103.47-.27-58.29,45.42-105.01,102.98-105.28,56.59-.26,105.01,47.73,105.15,104.24,.14,57.3-46.61,104.22-104.14,104.51"/><path class="b" d="M1465.99,625.54c-.01,15.54,.01,33.63-20.24,33.63s-22.29-14.3-22.17-32.03c.59-83.65,.41-137.05-1.1-220.68-.35-19.75-.01-41.48,21.5-41.26,22.04,.22,21.22,19.54,21.5,42.37,.54,42.16,.54,174.66,.51,217.96"/></g><g><path class="b" d="M465.68,377.72c-.05,4.87-.02,12.85-.02,12.85,0,0,5.02,.08,13.38-.04h8.65c10.24,0,17.79-10.05,17.79-21.07,0-9.83-8.55-17.88-18.39-18.57-10.68-.75-21.28,6.35-21.28,17.32l-.12,9.51Zm-12.8-10.39c1.31-16.96,14.96-29.45,31.53-29.85,17.56-.42,31.68,11.69,34.08,29.23,2.19,16.06-8.42,32.46-24.62,36.11-5.13,1.16-12.13,.74-18.11,.74h-10.08v16.11c0,4.54-.07,11.15-6.5,11.15s-6.56-6.18-6.61-10.97c-.07-8.31-.46-42.75,.3-52.52"/><path class="b" d="M396.99,368.47c-.99-18.21-15.75-31.54-34.04-31.02-17.39,.5-31.69,15.04-32.02,32.58-.34,17.77,13.95,32.97,31.79,33.61,6.07,.22,21.77,.01,21.77,.01,6.58,0,12.8,.09,12.8-7.44s.1-20.24-.3-27.75Zm-35.03,21.79c-10.64-1.31-17.71-9.44-17.59-19.98,.11-10.03,7.45-18.16,17.41-19.3,10.4-1.19,19.87,4.94,21.61,15.49,.77,4.64,.98,15.23,1.04,24.03-3.23,0-19.36,.14-22.48-.24Z"/><path class="b" d="M406.96,368.92c0-8.43,.02-16.85,.02-25.27,0-22.65,15.09-32.88,33.23-33.17,4.7-.08,7.75,2.79,7.75,6.78s-2.44,6.77-7.1,6.77c-10.96,0-17.9,6.02-20.11,14.89-.51,2.05-.65,4.18-.58,6.29,.05,1.49,0,5.29,0,5.29,0,0,4.05,.02,5.55,0,4.61-.09,10.87-.19,13.3-.19,3.96,0,8.05,1.15,8.05,6.62,0,4.82-4,6.9-7.61,6.9-21.11,0-19.43,.18-19.32,24.96,.01,2.74,0,7.86,0,7.86,0,7.83-6.55,7.35-6.55,7.35,0,0-6.55,.18-6.55-7.35,0-8.96,0-18.76,0-27.72h-.05Z"/></g></svg>