<?xml version="1.0" encoding="UTF-8"?>
<svg width="359px" height="122px" viewBox="0 0 359 122" version="1.1" xmlns="http://www.w3.org/2000/svg" xmlns:xlink="http://www.w3.org/1999/xlink">
    <!-- Generator: Sketch 57.1 (83088) - https://sketch.com -->
    <title>Cuprum Logo_white_final Copy</title>
    <desc>Created with Sketch.</desc>
    <g id="Page-1" stroke="none" stroke-width="1" fill="none" fill-rule="evenodd">
        <g id="Artboard" transform="translate(-91.000000, -85.000000)">
            <g id="Cuprum-Logo_white_final-Copy" transform="translate(91.000000, 85.000000)">
                <path d="M29.497,62.501 C12.13,62.501 0,49.767 0,31.532 C0,13.299 12.13,0.564 29.497,0.564 C36.453,0.564 43.414,2.831 49.627,7.12 L50.286,7.575 L46.359,13.858 L45.634,13.34 C40.861,9.93 35.611,8.128 30.45,8.128 C17.641,8.128 9.036,17.533 9.036,31.532 C9.036,45.532 17.641,54.939 30.45,54.939 C35.609,54.939 40.86,53.135 45.634,49.726 L46.359,49.208 L50.286,55.491 L49.627,55.946 C43.414,60.234 36.453,62.501 29.497,62.501" id="Fill-1" fill="#4D4F50"></path>
                <path d="M72.877,62.501 C63.004,62.501 56.108,55.712 56.108,45.992 L56.108,17.708 L64.624,17.708 L64.624,45.04 C64.624,50.918 68.837,55.024 74.868,55.024 C81.758,55.024 86.758,49.659 86.758,42.268 L86.758,17.708 L95.361,17.708 L95.361,61.462 L88.232,61.462 L87.551,55.394 C84.262,59.885 78.941,62.501 72.877,62.501" id="Fill-3" fill="#4D4F50"></path>
                <path d="M114.64,79.471 L106.124,79.471 L106.124,17.708 L113.244,17.708 L113.92,23.194 C117.121,18.966 121.977,16.668 127.828,16.668 C139.3,16.668 147.627,26.306 147.627,39.584 C147.627,52.864 139.3,62.501 127.828,62.501 C122.476,62.501 117.879,60.429 114.64,56.612 L114.64,79.471 Z M126.184,23.971 C119.335,23.971 114.552,29.004 114.552,36.207 L114.552,42.961 C114.552,50.165 119.335,55.198 126.184,55.198 C133.693,55.198 138.939,48.776 138.939,39.584 C138.939,30.538 133.574,23.971 126.184,23.971 L126.184,23.971 Z" id="Fill-4" fill="#4D4F50"></path>
                <path d="M163.388,61.462 L154.872,61.462 L154.872,17.708 L162.004,17.708 L162.645,23.617 C165.286,19.485 169.873,17.015 175.191,17.015 C176.787,17.015 178.732,17.27 180.667,17.731 L181.407,17.908 L180.4,25.178 L179.521,24.993 C177.643,24.597 176.057,24.405 174.672,24.405 C167.923,24.405 163.388,29.81 163.388,37.854 L163.388,61.462" id="Fill-5" fill="#4D4F50"></path>
                <path d="M202.378,62.501 C192.504,62.501 185.61,55.712 185.61,45.992 L185.61,17.708 L194.126,17.708 L194.126,45.04 C194.126,50.918 198.338,55.024 204.37,55.024 C211.259,55.024 216.259,49.659 216.259,42.268 L216.259,17.708 L224.862,17.708 L224.862,61.462 L217.734,61.462 L217.051,55.394 C213.763,59.885 208.443,62.501 202.378,62.501" id="Fill-6" fill="#4D4F50"></path>
                <path d="M299.128,47.579 L295.875,38.99 L298.475,37.996 C298.969,37.807 299.457,37.637 299.94,37.476 L299.94,32.519 C299.94,23.354 293.143,16.702 283.778,16.702 C277.566,16.702 272.085,19.669 268.515,24.905 C266.032,19.804 260.812,16.702 254.514,16.702 C248.774,16.702 243.825,19.154 240.612,23.509 L239.934,17.741 L232.809,17.741 L232.809,61.495 L241.325,61.495 L241.325,36.241 C241.325,29.138 245.929,24.178 252.521,24.178 C258.145,24.178 262.073,28.035 262.073,33.557 L262.073,61.495 L270.676,61.495 L270.676,36.241 C270.676,29.138 275.281,24.178 281.875,24.178 C287.447,24.178 291.338,28.035 291.338,33.557 L291.338,61.495 L298.128,61.495 C296.422,59.84 295.383,57.615 295.383,55.127 C295.383,52.38 296.47,49.529 299.128,47.579" id="Fill-7" fill="#4D4F50"></path>
                <path d="M165.635,101.863 C165.635,112.31 173.648,121.035 184.046,122 L184.046,108.709 C179.177,108.253 175.831,104.653 175.831,99.886 C175.831,95.268 178.924,91.921 183.184,91.921 C187.089,91.921 189.727,94.356 189.727,97.957 C189.727,101.152 187.7,103.233 184.046,103.791 L184.046,108.709 C191.553,108.509 196.422,103.944 196.422,97.094 C196.422,89.689 190.642,84.263 182.729,84.263 C172.99,84.263 165.635,91.869 165.635,101.863" id="Fill-8" fill="#2F84B9"></path>
                <path d="M17.554,102.43 C17.554,106.385 14.469,109.122 10.29,109.122 C6.111,109.122 3.051,106.385 3.051,102.43 L3.051,92.106 L5.09,92.106 L5.09,102.355 C5.09,105.365 7.305,107.455 10.29,107.455 C13.3,107.455 15.489,105.365 15.489,102.355 L15.489,92.106 L17.554,92.106 L17.554,102.43" id="Fill-9" fill="#4D4F50"></path>
                <path d="M21.668,96.779 L23.261,96.779 L23.51,98.994 C24.331,97.402 25.948,96.481 27.863,96.481 C30.55,96.481 32.465,98.322 32.465,100.984 L32.465,108.87 L30.476,108.87 L30.476,101.282 C30.476,99.441 29.157,98.147 27.291,98.147 C25.201,98.147 23.634,99.74 23.634,102.054 L23.634,108.87 L21.668,108.87 L21.668,96.779" id="Fill-10" fill="#4D4F50"></path>
                <path d="M39.975,107.725 C42.064,107.725 43.532,106.232 43.532,104.094 L43.532,103.073 C42.687,102.874 41.866,102.775 41.045,102.775 C38.657,102.775 37.238,103.77 37.238,105.412 C37.238,106.73 38.407,107.725 39.975,107.725 Z M40.82,101.531 C41.666,101.531 42.587,101.63 43.532,101.88 L43.532,100.636 C43.532,99.093 42.338,97.998 40.572,97.998 C39.278,97.998 37.96,98.297 36.566,98.894 L36.019,97.452 C37.711,96.804 39.254,96.481 40.795,96.481 C43.532,96.481 45.423,98.172 45.423,100.685 L45.423,106.532 C45.423,107.203 45.821,107.626 46.517,107.626 C46.717,107.626 47.015,107.576 47.164,107.552 L47.314,109.044 C46.916,109.118 46.467,109.168 46.02,109.168 C44.701,109.168 43.855,108.397 43.707,107.153 C42.736,108.423 41.169,109.168 39.503,109.168 C37.114,109.168 35.298,107.6 35.298,105.536 C35.298,102.999 37.388,101.531 40.82,101.531 L40.82,101.531 Z" id="Fill-11" fill="#4D4F50"></path>
                <path d="M268.398,96.109 C266.829,96.109 265.362,96.768 264.45,97.982 L264.248,96.414 L262.173,96.414 L262.173,113.671 L264.654,113.671 L264.654,107.75 C265.412,108.458 266.829,108.966 268.043,108.966 C271.434,108.966 273.713,106.231 273.713,102.283 C273.713,98.589 271.586,96.109 268.398,96.109 L268.398,96.109 Z M267.639,106.739 C266.525,106.739 265.311,106.182 264.704,105.423 L264.704,101.725 C264.704,99.652 265.968,98.333 267.891,98.333 C269.917,98.333 271.182,99.855 271.182,102.283 C271.182,105.117 269.866,106.739 267.639,106.739 L267.639,106.739 Z M202.3,91.959 L202.3,108.711 L204.881,108.711 L204.881,102.789 L208.321,102.789 C211.863,102.789 214.244,100.613 214.244,97.374 C214.244,94.137 211.863,91.959 208.321,91.959 L202.3,91.959 Z M204.881,94.137 L207.968,94.137 C210.296,94.137 211.662,95.299 211.662,97.374 C211.662,99.449 210.296,100.613 207.968,100.613 L204.881,100.613 L204.881,94.137 Z M221.683,96.21 C220.267,96.21 218.951,96.866 218.242,97.982 L218.039,96.414 L215.963,96.414 L215.963,108.711 L218.445,108.711 L218.445,102.082 C218.445,99.702 219.559,98.439 221.683,98.439 C222.04,98.439 222.544,98.537 223.051,98.639 L223.354,96.513 C222.847,96.31 222.29,96.21 221.683,96.21 L221.683,96.21 Z M226.543,94.641 C227.453,94.641 228.111,93.983 228.111,93.071 C228.111,92.162 227.453,91.505 226.543,91.505 C225.63,91.505 224.923,92.162 224.923,93.071 C224.923,93.983 225.63,94.641 226.543,94.641 L226.543,94.641 Z M225.278,108.711 L227.754,108.711 L227.754,96.414 L225.278,96.414 L225.278,108.711 Z M237.22,96.109 C235.603,96.109 234.184,96.818 233.275,97.982 L233.071,96.414 L230.994,96.414 L230.994,108.711 L233.476,108.711 L233.476,101.828 C233.476,99.754 234.792,98.333 236.665,98.333 C238.335,98.333 239.399,99.398 239.399,101.067 L239.399,108.711 L241.877,108.711 L241.877,100.765 C241.877,97.982 240.005,96.109 237.22,96.109 L237.22,96.109 Z M250.126,98.333 C251.139,98.333 252.305,98.792 253.266,99.501 L254.377,97.68 C253.266,96.716 251.595,96.109 250.026,96.109 C246.432,96.109 243.801,98.792 243.801,102.535 C243.801,106.434 246.231,108.966 249.874,108.966 C251.595,108.966 253.368,108.358 254.377,107.395 L253.266,105.624 C252.354,106.382 251.342,106.739 250.226,106.739 C247.85,106.739 246.33,105.117 246.33,102.535 C246.33,100.007 247.85,98.333 250.126,98.333 L250.126,98.333 Z M292.337,106.838 C291.477,106.838 291.174,106.485 291.174,105.522 L291.174,91.198 L288.693,91.198 L288.693,105.877 C288.693,107.851 289.808,108.966 291.882,108.966 C292.387,108.966 292.943,108.863 293.296,108.711 L293.044,106.739 C292.842,106.788 292.539,106.838 292.337,106.838 L292.337,106.838 Z M257.819,94.641 C258.73,94.641 259.388,93.983 259.388,93.071 C259.388,92.162 258.73,91.505 257.819,91.505 C256.91,91.505 256.202,92.162 256.202,93.071 C256.202,93.983 256.91,94.641 257.819,94.641 L257.819,94.641 Z M256.556,108.711 L259.035,108.711 L259.035,96.414 L256.556,96.414 L256.556,108.711 Z M283.025,101.322 C282.264,101.119 281.253,101.019 280.342,101.019 C277.104,101.019 275.179,102.587 275.179,105.167 C275.179,107.447 277.003,108.966 279.634,108.966 C281.204,108.966 282.47,108.358 283.329,107.294 C283.683,108.358 284.593,108.966 285.809,108.966 C286.316,108.966 286.871,108.863 287.225,108.711 L286.973,106.788 C286.771,106.838 286.517,106.89 286.316,106.89 C285.709,106.89 285.454,106.584 285.454,105.979 L285.454,100.664 C285.454,97.829 283.584,96.109 280.493,96.109 C278.976,96.109 277.254,96.513 275.786,97.222 L276.545,99.196 C277.609,98.589 278.876,98.234 280.089,98.234 C282.011,98.234 283.025,99.095 283.025,100.765 L283.025,101.322 Z M283.025,103.802 C283.025,105.776 281.859,106.941 279.938,106.941 C278.522,106.941 277.661,106.182 277.661,104.967 C277.661,103.6 278.775,102.789 280.646,102.789 C281.557,102.789 282.264,102.89 283.025,103.043 L283.025,103.802 L283.025,103.802 Z" id="Fill-12" fill="#4D4F50"></path>
                <path d="M296.413,88.349 C297.889,88.349 298.928,89.388 298.928,90.865 C298.928,92.341 297.889,93.38 296.413,93.38 C294.936,93.38 293.897,92.341 293.897,90.865 C293.897,89.388 294.936,88.349 296.413,88.349 L296.413,88.349 Z M296.413,92.921 C297.623,92.921 298.47,92.074 298.47,90.865 C298.47,89.655 297.623,88.807 296.413,88.807 C295.204,88.807 294.355,89.655 294.355,90.865 C294.355,92.074 295.204,92.921 296.413,92.921 L296.413,92.921 Z M295.346,89.442 L296.585,89.442 C297.166,89.442 297.583,89.811 297.583,90.351 C297.583,90.776 297.335,91.096 296.966,91.186 L297.677,92.286 L296.98,92.286 L296.372,91.281 L295.96,91.281 L295.96,92.286 L295.346,92.286 L295.346,89.442 Z M295.96,90.796 L296.501,90.796 C296.775,90.796 296.96,90.632 296.96,90.373 C296.96,90.112 296.775,89.942 296.501,89.942 L295.96,89.942 L295.96,90.796 L295.96,90.796 Z" id="Fill-13" fill="#4D4F50"></path>
                <path d="M59.713,96.443 C61.177,96.443 62.616,96.89 63.979,97.808 L63.162,99.172 C62.119,98.454 61.078,98.08 59.961,98.08 C57.431,98.08 55.669,99.991 55.669,102.77 C55.669,105.549 57.431,107.483 59.961,107.483 C61.078,107.483 62.119,107.088 63.162,106.366 L63.979,107.732 C62.616,108.649 61.177,109.096 59.713,109.096 C56.165,109.096 53.634,106.492 53.634,102.77 C53.634,99.074 56.165,96.443 59.713,96.443" id="Fill-14" fill="#4D4F50"></path>
                <path d="M71.206,96.443 C74.779,96.443 77.334,99.047 77.334,102.77 C77.334,106.492 74.779,109.096 71.206,109.096 C67.61,109.096 65.054,106.492 65.054,102.77 C65.054,99.047 67.61,96.443 71.206,96.443 M71.206,107.508 C73.613,107.508 75.326,105.572 75.326,102.77 C75.326,99.991 73.613,98.032 71.206,98.032 C68.775,98.032 67.088,99.991 67.088,102.77 C67.088,105.572 68.775,107.508 71.206,107.508" id="Fill-15" fill="#4D4F50"></path>
                <path d="M79.897,96.74 L81.485,96.74 L81.733,98.849 C82.577,97.312 84.065,96.444 85.877,96.444 C87.763,96.444 89.276,97.459 89.847,99.074 C90.789,97.436 92.352,96.444 94.263,96.444 C96.844,96.444 98.654,98.23 98.654,100.736 L98.654,108.799 L96.67,108.799 L96.67,101.033 C96.67,99.323 95.454,98.106 93.717,98.106 C91.707,98.106 90.269,99.644 90.269,101.803 L90.269,108.799 L88.284,108.799 L88.284,101.033 C88.284,99.323 87.068,98.106 85.306,98.106 C83.296,98.106 81.857,99.644 81.857,101.803 L81.857,108.799 L79.897,108.799 L79.897,96.74" id="Fill-16" fill="#4D4F50"></path>
                <path d="M101.867,96.74 L103.455,96.74 L103.703,98.75 C104.547,97.261 106.035,96.444 107.847,96.444 C110.997,96.444 113.28,99.074 113.28,102.77 C113.28,106.468 110.997,109.096 107.847,109.096 C106.11,109.096 104.696,108.302 103.827,106.914 L103.827,113.958 L101.867,113.958 L101.867,96.74 Z M107.375,98.056 C105.266,98.056 103.803,99.619 103.803,101.803 L103.803,103.738 C103.803,105.946 105.266,107.484 107.375,107.484 C109.634,107.484 111.271,105.548 111.271,102.77 C111.271,100.015 109.634,98.056 107.375,98.056 L107.375,98.056 Z" id="Fill-17" fill="#4D4F50"></path>
                <path d="M120.483,101.479 C121.326,101.479 122.245,101.579 123.188,101.827 L123.188,100.587 C123.188,99.047 121.996,97.957 120.234,97.957 C118.945,97.957 117.629,98.253 116.239,98.849 L115.694,97.411 C117.381,96.767 118.919,96.444 120.458,96.444 C123.188,96.444 125.072,98.13 125.072,100.636 L125.072,106.468 C125.072,107.137 125.47,107.559 126.164,107.559 C126.363,107.559 126.661,107.508 126.81,107.484 L126.958,108.973 C126.561,109.047 126.114,109.096 125.668,109.096 C124.353,109.096 123.51,108.328 123.361,107.088 C122.393,108.352 120.83,109.096 119.168,109.096 C116.786,109.096 114.975,107.534 114.975,105.474 C114.975,102.944 117.059,101.479 120.483,101.479 M119.64,107.657 C121.724,107.657 123.188,106.168 123.188,104.035 L123.188,103.017 C122.343,102.819 121.525,102.721 120.706,102.721 C118.325,102.721 116.91,103.712 116.91,105.35 C116.91,106.666 118.076,107.657 119.64,107.657" id="Fill-18" fill="#4D4F50"></path>
                <path d="M128.676,96.74 L130.264,96.74 L130.512,98.948 C131.332,97.36 132.943,96.444 134.854,96.444 C137.534,96.444 139.444,98.28 139.444,100.934 L139.444,108.799 L137.459,108.799 L137.459,101.231 C137.459,99.395 136.144,98.106 134.284,98.106 C132.199,98.106 130.636,99.693 130.636,102.001 L130.636,108.799 L128.676,108.799 L128.676,96.74 Z M135.4,92.821 C135.897,92.821 136.269,92.474 136.442,91.902 L137.707,92.275 C137.459,93.441 136.641,94.236 135.549,94.236 C134.407,94.236 133.291,93.316 132.522,93.316 C132.026,93.316 131.654,93.639 131.48,94.236 L130.214,93.837 C130.463,92.672 131.281,91.902 132.373,91.902 C133.514,91.902 134.63,92.821 135.4,92.821 L135.4,92.821 Z" id="Fill-19" fill="#4D4F50"></path>
                <path d="M142.852,95.128 L142.082,94.011 L146.3,91.084 L147.193,92.375 L142.852,95.128 Z M142.653,108.799 L144.613,108.799 L144.613,96.74 L142.653,96.74 L142.653,108.799 Z" id="Fill-20" fill="#4D4F50"></path>
                <path d="M152.68,101.479 C153.523,101.479 154.441,101.579 155.384,101.827 L155.384,100.587 C155.384,99.047 154.193,97.957 152.431,97.957 C151.142,97.957 149.827,98.253 148.436,98.849 L147.891,97.411 C149.578,96.767 151.116,96.444 152.654,96.444 C155.384,96.444 157.27,98.13 157.27,100.636 L157.27,106.468 C157.27,107.137 157.667,107.559 158.361,107.559 C158.56,107.559 158.857,107.508 159.006,107.484 L159.154,108.973 C158.758,109.047 158.311,109.096 157.865,109.096 C156.55,109.096 155.707,108.328 155.558,107.088 C154.59,108.352 153.027,109.096 151.365,109.096 C148.983,109.096 147.172,107.534 147.172,105.474 C147.172,102.944 149.256,101.479 152.68,101.479 M151.836,107.657 C153.92,107.657 155.384,106.168 155.384,104.035 L155.384,103.017 C154.541,102.819 153.722,102.721 152.903,102.721 C150.522,102.721 149.107,103.712 149.107,105.35 C149.107,106.666 150.273,107.657 151.836,107.657" id="Fill-21" fill="#4D4F50"></path>
                <path d="M306.595,59.309 C310.376,59.309 313.03,56.608 313.03,52.739 L313.03,50.894 C311.501,50.534 310.015,50.354 308.53,50.354 C304.21,50.354 301.646,52.154 301.646,55.123 C301.646,57.509 303.76,59.309 306.595,59.309 Z M308.126,48.104 C309.655,48.104 311.32,48.284 313.03,48.734 L313.03,46.484 C313.03,43.694 310.871,41.714 307.675,41.714 C305.335,41.714 302.951,42.254 300.43,43.334 L299.441,40.724 C302.501,39.554 305.291,38.969 308.081,38.969 C313.03,38.969 316.45,42.029 316.45,46.574 L316.45,57.148 C316.45,58.364 317.169,59.128 318.43,59.128 C318.79,59.128 319.33,59.039 319.6,58.994 L319.87,61.693 C319.15,61.829 318.34,61.918 317.53,61.918 C315.145,61.918 313.615,60.523 313.345,58.273 C311.59,60.568 308.755,61.918 305.741,61.918 C301.42,61.918 298.135,59.083 298.135,55.349 C298.135,50.759 301.916,48.104 308.126,48.104 L308.126,48.104 Z" id="Fill-22" fill="#ECAD3E"></path>
                <path d="M324.37,42.344 L319.825,42.344 L319.825,39.509 L324.37,39.509 L324.37,35.549 C324.37,31.769 327.025,29.16 330.939,29.16 C332.335,29.16 333.774,29.34 335.304,29.745 L334.809,32.535 C333.684,32.265 332.649,32.084 331.705,32.084 C329.455,32.084 327.924,33.615 327.924,35.864 L327.924,39.509 L334.089,39.509 L334.089,42.344 L327.924,42.344 L327.924,61.378 L324.37,61.378 L324.37,42.344" id="Fill-23" fill="#ECAD3E"></path>
                <path d="M347.679,41.894 C343.854,41.894 341.199,44.729 341.199,48.689 L341.199,52.199 C341.199,56.203 343.854,58.994 347.679,58.994 C351.774,58.994 354.744,55.484 354.744,50.444 C354.744,45.449 351.774,41.894 347.679,41.894 Z M337.689,39.509 L340.569,39.509 L341.019,43.154 C342.549,40.454 345.249,38.969 348.534,38.969 C354.249,38.969 358.388,43.739 358.388,50.444 C358.388,57.148 354.249,61.918 348.534,61.918 C345.384,61.918 342.819,60.478 341.244,57.958 L341.244,70.738 L337.689,70.738 L337.689,39.509 L337.689,39.509 Z" id="Fill-24" fill="#ECAD3E"></path>
            </g>
        </g>
    </g>
</svg>