<svg id="Capa_1" data-name="Capa 1" xmlns="http://www.w3.org/2000/svg" viewBox="0 0 500 183"><defs><style>.cls-1{fill:#fff;}</style></defs><title>publico</title><path class="cls-1" d="M100,24.74H86l-3.17,8.65H80.12L91.77,2.61h2.47l11.65,30.78h-2.7ZM86.82,22.55H99.17L93,5.78Z"/><path class="cls-1" d="M127.76,19H113.41v14.4h-2.6V2.61h19.07v2.2H113.41v12h14.35Z"/><path class="cls-1" d="M137,20.85V33.39h-2.6V2.61h10.48a11.07,11.07,0,0,1,7.58,2.45,8.55,8.55,0,0,1,2.78,6.75,8.45,8.45,0,0,1-2.67,6.69q-2.69,2.36-7.75,2.35Zm0-2.19h7.88a8.31,8.31,0,0,0,5.77-1.8,6.42,6.42,0,0,0,2-5,6.71,6.71,0,0,0-2-5.09A7.88,7.88,0,0,0,145,4.81h-8Z"/><path class="cls-1" d="M89.42,100.34v29.74h-10v-76h28q12.46,0,19.54,6.37T134,77.32q0,11.07-6.91,17t-19.81,6Zm0-8.2h18q8,0,12.31-3.79T124,77.4q0-6.8-4.28-10.87T108,62.29H89.42Z"/><path class="cls-1" d="M150.07,130.08h-9.65V49.93h9.65Z"/><path class="cls-1" d="M191.79,130.08a20.13,20.13,0,0,1-1.36-6,21.56,21.56,0,0,1-16.07,7q-8.36,0-13.7-4.73a15.27,15.27,0,0,1-5.35-12q0-8.82,6.71-13.7t18.86-4.88h9.39V91.41a10.87,10.87,0,0,0-3-8.06q-3-3-8.93-3A14.07,14.07,0,0,0,169.66,83a7.68,7.68,0,0,0-3.49,6.31h-9.71a13.31,13.31,0,0,1,3-8.16,20.42,20.42,0,0,1,8.14-6.24,27.4,27.4,0,0,1,11.3-2.3q9.75,0,15.29,4.88t5.74,13.44v26q0,7.77,2,12.37v.83Zm-16-7.36a17,17,0,0,0,8.61-2.34,14.22,14.22,0,0,0,5.89-6.11V102.68h-7.56q-17.75,0-17.75,10.39a8.79,8.79,0,0,0,3,7.1A11.66,11.66,0,0,0,175.77,122.72Z"/><path class="cls-1" d="M219.42,73.62l.31,7.1a20.59,20.59,0,0,1,16.91-8.15q17.9,0,18.06,20.2v37.31H245V92.72q0-6.1-2.79-9t-8.53-2.92a14,14,0,0,0-8.25,2.5,17,17,0,0,0-5.53,6.58v40.23h-9.65V73.62Z"/><path class="cls-1" d="M290.19,116.77,311.9,54.1h11l-28.18,76h-8.87l-28.13-76h10.91Z"/><path class="cls-1" d="M336.29,130.08h-9.66V73.62h9.66Z"/><path class="cls-1" d="M361,60V73.62h10.55v7.46H361v35.06a7.87,7.87,0,0,0,1.41,5.1q1.41,1.7,4.8,1.69a23.88,23.88,0,0,0,4.6-.62v7.78a28.22,28.22,0,0,1-7.41,1q-6.48,0-9.76-3.92t-3.29-11.11V60Z"/><path class="cls-1" d="M412,130.08a20.13,20.13,0,0,1-1.36-6,21.55,21.55,0,0,1-16.07,7q-8.36,0-13.7-4.73a15.27,15.27,0,0,1-5.35-12q0-8.82,6.71-13.7t18.86-4.88h9.39V91.41a10.83,10.83,0,0,0-3-8.06q-3-3-8.92-3A14.08,14.08,0,0,0,389.83,83a7.68,7.68,0,0,0-3.49,6.31h-9.71a13.31,13.31,0,0,1,3-8.16,20.42,20.42,0,0,1,8.14-6.24,27.4,27.4,0,0,1,11.3-2.3q9.75,0,15.29,4.88t5.74,13.44v26q0,7.77,2,12.37v.83Zm-16-7.36a17,17,0,0,0,8.61-2.34,14.22,14.22,0,0,0,5.89-6.11V102.68h-7.56q-17.75,0-17.74,10.39a8.82,8.82,0,0,0,3,7.1A11.66,11.66,0,0,0,395.94,122.72Z"/><path class="cls-1" d="M441,130.08H431.3V49.93H441Z"/><rect class="cls-1" x="326.57" y="52.9" width="10.17" height="10.63"/><path class="cls-1" d="M79.81,169.88a8.63,8.63,0,0,1,.17-1.54l2-9H84.7l-2,8.87a6,6,0,0,0-.16,1.39c0,1.84,1.26,3.15,3.54,3.15,2.68,0,3.91-1.61,4.45-4.08l2.07-9.33h2.74l-2.07,9.38c-.84,3.79-2.7,6.42-7.33,6.42C82,175.18,79.81,173.06,79.81,169.88Z"/><path class="cls-1" d="M104.34,167.85a3.1,3.1,0,0,0,.11-.7c0-1.14-.9-1.6-1.88-1.6a4.68,4.68,0,0,0-3.21,1.51l-1.72,7.84H95.19l2.49-11.24h2.45l-.35,1.54a5.65,5.65,0,0,1,3.84-1.82c2.09,0,3.44,1.07,3.44,2.84a7.83,7.83,0,0,1-.11.93l-1.73,7.75h-2.44Z"/><path class="cls-1" d="M118.79,163.66h2.44l-2.49,11.24H116.3l.32-1.49a4.39,4.39,0,0,1-3.51,1.77c-2.56,0-4.31-1.67-4.31-4.63,0-3.51,2.17-7.17,5.92-7.17a4.33,4.33,0,0,1,3.72,1.89ZM114.13,173a3.81,3.81,0,0,0,2.94-1.58l1-4.36a3.37,3.37,0,0,0-3-1.53c-2.21,0-3.73,2.16-3.73,4.51A2.7,2.7,0,0,0,114.13,173Z"/><path class="cls-1" d="M134.77,163.38a4.81,4.81,0,0,1,4.42,2.17l-1.84,1.39a2.88,2.88,0,0,0-2.56-1.39c-2.42,0-4,2.09-4,4.47a2.87,2.87,0,0,0,3.11,3,3.39,3.39,0,0,0,2.56-1.21l1.35,1.63a5.57,5.57,0,0,1-4.14,1.74c-3.21,0-5.37-2-5.37-5.07A6.55,6.55,0,0,1,134.77,163.38Z"/><path class="cls-1" d="M146.27,163.38c3.42,0,5.4,2.12,5.4,5.08a6.57,6.57,0,0,1-6.41,6.72c-3.42,0-5.39-2.09-5.39-5.05A6.59,6.59,0,0,1,146.27,163.38Zm-.07,2.17c-2.24,0-3.8,2.18-3.8,4.47a2.75,2.75,0,0,0,2.94,3c2.23,0,3.79-2.17,3.79-4.47A2.75,2.75,0,0,0,146.2,165.55Z"/><path class="cls-1" d="M168.14,167.73a3.5,3.5,0,0,0,.09-.69,1.58,1.58,0,0,0-1.74-1.49,4,4,0,0,0-2.66,1.51l-1.72,7.84h-2.44l1.58-7.17a3.43,3.43,0,0,0,.1-.81c0-.74-.63-1.37-1.77-1.37a4,4,0,0,0-2.63,1.51l-1.73,7.84h-2.44l2.49-11.24h2.44l-.35,1.54a4.87,4.87,0,0,1,3.47-1.82,2.82,2.82,0,0,1,3,2v.07a5.15,5.15,0,0,1,3.94-2.05,2.85,2.85,0,0,1,3.09,2.84,5.24,5.24,0,0,1-.12.93L169,174.9h-2.44Z"/><path class="cls-1" d="M173.65,179.19h-2.44l3.44-15.53h2.45l-.35,1.49a4.46,4.46,0,0,1,3.53-1.77c2.54,0,4.31,1.7,4.31,4.66,0,3.49-2.19,7.14-5.91,7.14A4.32,4.32,0,0,1,175,173.3Zm5.61-13.64a3.87,3.87,0,0,0-3,1.6l-1,4.36a3.37,3.37,0,0,0,3,1.51c2.21,0,3.72-2.17,3.72-4.49A2.73,2.73,0,0,0,179.26,165.55Z"/><path class="cls-1" d="M196,163.66h2.45L196,174.9h-2.45l.33-1.49a4.41,4.41,0,0,1-3.52,1.77c-2.56,0-4.3-1.67-4.3-4.63,0-3.51,2.16-7.17,5.91-7.17a4.3,4.3,0,0,1,3.72,1.89ZM191.36,173a3.78,3.78,0,0,0,2.93-1.58l1-4.36a3.38,3.38,0,0,0-3-1.53c-2.21,0-3.72,2.16-3.72,4.51A2.7,2.7,0,0,0,191.36,173Z"/><path class="cls-1" d="M208.28,167.85a3.79,3.79,0,0,0,.11-.7c0-1.14-.91-1.6-1.88-1.6a4.72,4.72,0,0,0-3.22,1.51l-1.72,7.84h-2.44l2.49-11.24h2.44l-.35,1.54a5.65,5.65,0,0,1,3.84-1.82c2.1,0,3.45,1.07,3.45,2.84a6.24,6.24,0,0,1-.12.93l-1.72,7.75h-2.44Zm-2.4-7.66c-.54,0-1,.52-1.21,1.68h-1.35c.37-1.91,1.19-3.12,2.74-3.12a2,2,0,0,1,1.68,1c.3.42.58.8,1.12.8s.93-.52,1.21-1.68h1.37c-.42,1.91-1.21,3.12-2.77,3.12a2,2,0,0,1-1.67-1C206.69,160.57,206.41,160.19,205.88,160.19Z"/><path class="cls-1" d="M214.81,163.66h2.45l-2.5,11.24h-2.44Zm.63-1.7,4-3.35h2.38L217.23,162Z"/><path class="cls-1" d="M228.33,163.66h2.45l-2.49,11.24h-2.45l.33-1.49a4.41,4.41,0,0,1-3.52,1.77c-2.56,0-4.3-1.67-4.3-4.63,0-3.51,2.16-7.17,5.91-7.17a4.31,4.31,0,0,1,3.72,1.89ZM223.68,173a3.78,3.78,0,0,0,2.93-1.58l1-4.36a3.38,3.38,0,0,0-3-1.53c-2.21,0-3.72,2.16-3.72,4.51A2.7,2.7,0,0,0,223.68,173Z"/><path class="cls-1" d="M321.15,166.78V156.59c6.39,0,8.73-.32,9.85,7.52h.67v-8.72H314.29v1.19h3V179H314v1.18h17.93V171H331c-.9,6.93-2.65,8-7.58,8h-2.28v-10.9h1.32c2.21.06,3.47,1.35,3.92,5.15h.81V162a7.11,7.11,0,0,1-.8,0c0,.06-.16,4.85-4,4.78Z"/><path class="cls-1" d="M314,167.23h-9.81v1.11h3.36v8.06c-.57,2-3.58,2.91-4.48,2.91-6.27,0-5.82-9.17-5.82-11.63,0-2.24-.23-11.63,5.82-11.63,4.26,0,6.49,4.24,7.39,8h.68c0-1.57,0-9,0-9s-2.92,2.1-2.93,2.07-1.34-2-5.15-2c-7.4,0-10.11,7.38-10.09,12.53,0,4.71,2.21,12.74,10.09,12.74a6,6,0,0,0,5.15-2.69s3.13,2.46,3.14,2.46V168.34H314Z"/><path class="cls-1" d="M428.69,171c-.89,6.93-2.64,8-7.57,8h-.3V156.58H424v-1.2h-10.3v1.2h3.13V179H414.3l-9.16-24.29h-1.35s-7.6,22-7.62,22.1-.58,1.9-1.83,2.14c-1.16.05-1.07-.55-1.07-.76v-4.25c0-1.12-.09-3.65-1.25-4.81a6.68,6.68,0,0,0-3.47-1.46s5.63-1.16,5.63-6.51c0-3.75-2.6-5.62-7-5.78H374.84v1.21H378V179h-3.17v1.2H385V179h-3.16V168.23h4.22c7.32.6-1.26,12,8.34,12h6.05V179c-.34,0-2.55.07-2.69-1.48-.09-1.12,1.46-5.13,1.46-5.13h8.23S410,179,410,179h-2.88v1.2h22.44V171ZM385.87,167h-4V156.58H387c3,.46,3.15,3.95,3.15,5.06,0,2.68-1.13,5.33-4.27,5.33m13.89,4.28,3.58-10.72,3.81,10.72Z"/><path class="cls-1" d="M362.64,156.58c6.39,0,8.74-.31,9.86,7.52h.67v-8.71H347.81v1.19h.66c.9,0,3,.07,3.15,1.93h0v14.31l-11.86-17.43h-6.46v1.19h1.08c1.27,0,3.05,0,3.14,1.93v18.33c0,1.79-2.68,2.47-3.8,2.47h0v.89h8.74v-.89c-1.12,0-3.82-.68-3.82-2.47l0-16.13c4.7,6.71,13.56,19.5,13.65,19.49h.44V158.51c.12-1.86,2.25-1.93,3.14-1.93h2.91V179h-3.32v1.19h17.92V171h-.89c-.9,6.93-2.65,8-7.58,8h-2.28v-10.9H364c2.21.06,3.47,1.35,3.92,5.15h.81V162a7.11,7.11,0,0,1-.8,0c0,.06-.16,4.85-4,4.78h-1.22Z"/><polygon class="cls-1" points="440.87 156.58 440.87 155.37 430.75 155.37 430.75 156.58 433.93 156.58 433.94 178.99 430.75 178.99 430.75 180.19 440.87 180.19 440.87 178.99 437.69 178.99 437.69 156.58 440.87 156.58"/><path class="cls-1" d="M281.15,178l.92-.34h0c1.3-.54,1.49-.87,1.43-1.74v-3.5c1,2.52,1.93,4.29,3.85,4.29a3.73,3.73,0,0,0,.84-.11l.75-.16-.52-.57a5.32,5.32,0,0,1-.67-1c-.07-.14-.15-.27-.25-.43a1.92,1.92,0,0,0-2.38-.59,32.52,32.52,0,0,1-1.27-3l-.1-.24c-.08-.18-.17-.37-.25-.56v0h0a17.84,17.84,0,0,0-1-1.95,11.3,11.3,0,0,0-1.06-1.5,6.46,6.46,0,0,0-3.95-2.17,23.71,23.71,0,0,0-2.9-.27l-.66,0c-.45,0-1.39-.1-2.29-.17l-1.73-.14a1.54,1.54,0,0,0,.06-.43,2.09,2.09,0,0,0-.06-.53h6.42a3.71,3.71,0,0,0,3.57-2.17,3.73,3.73,0,0,0,3.54-2.22h.22a3.73,3.73,0,0,0,3.65-2.32l.28-.64H265.85a3.24,3.24,0,0,0-3.1,2.37l0,.06a4.63,4.63,0,0,0-1.91-2.43,4.87,4.87,0,0,0-3.67-.64,3.72,3.72,0,0,0-1,.46,3.48,3.48,0,0,0-.86.76,7,7,0,0,0-.75,1.19,1.65,1.65,0,0,0-.29.31L254,158v0a5.77,5.77,0,0,1-1,1.54,1,1,0,0,0-.27.88,1.21,1.21,0,0,0,.3.56v0a1,1,0,0,0-.14.49,1.06,1.06,0,0,0,1.12,1,2.17,2.17,0,0,0,1.2-.47,3.11,3.11,0,0,1,.7-.39.34.34,0,0,1,.33.33c0,.47-.6.72-1,.75l-.88.1c-.64.06-.94.39-.94.69a.77.77,0,0,0,.25.58l.06.07.23.19-.94,1.51a3.47,3.47,0,0,0-2.14-1,1.48,1.48,0,0,0-1.12.39,1.32,1.32,0,0,0-.22.26h0a1.69,1.69,0,0,0-1.42,2.81l-2.37.62v11.3h43.38V178Zm5.6-3.07.23.4c.09.15.17.3.27.46a2.15,2.15,0,0,1-1.67-1.13,1,1,0,0,1,1.17.27m-9.39-9.67a5.4,5.4,0,0,1,3.4,1.87,7.87,7.87,0,0,1,.54.69c-2.36-.31-3.17-.65-4.49-2.65l.55.09m-1-3.37h-4.41a4.15,4.15,0,0,0,.95-1.27h6a2.8,2.8,0,0,1-2.54,1.27m3.52-2.17h-4.42a4.07,4.07,0,0,0,1-1.32h6a2.76,2.76,0,0,1-2.56,1.32m.3-3.38h6a2.79,2.79,0,0,1-2.47,1.16h-4.41a4.23,4.23,0,0,0,.9-1.16m-24.17.23a2.81,2.81,0,0,1,.64-.56,2.84,2.84,0,0,1,2.21-.38l-1.58,1-.58,0a5.41,5.41,0,0,0-.74.06l.05-.06m-1.86,7a.15.15,0,0,1,.12-.11l.77,0c.94,0,1.9-.43,2-1.41a1.25,1.25,0,0,0-1.14-1.31,2.52,2.52,0,0,0-1.2.55,1.67,1.67,0,0,1-.7.34c-.12,0-.22-.07-.22-.14a0,0,0,0,1,0,0l.49-.66-.43-.29c-.09-.06-.23-.17-.24-.26s.05-.1.07-.13a8.66,8.66,0,0,0,.58-.76c.13-.18.2-.28.41-.28a.38.38,0,0,1,.38.38c0,.13.15.24.33.24s.27-.13.39-.24.44-.41.2-.6-1.33.23-1-.75L255,158a2.23,2.23,0,0,1,1.68-.53c.2,0,.41,0,.63,0l.15,0,2.24-1.37a.44.44,0,0,1,0,.08h0v0a1.93,1.93,0,0,1-1,1.87l-.28.16.18,1a1.27,1.27,0,0,0-1,1.19,3.75,3.75,0,0,0,.1.7,7.64,7.64,0,0,1,.15,1c0,1.05-1.45,1.74-2.68,1.7h0a3,3,0,0,1-1-.21.15.15,0,0,1-.06-.14m-5.54,3.29a1.07,1.07,0,0,1,1.09-.41l.38.07.12-.37a.48.48,0,0,1,.14-.23.65.65,0,0,1,.47-.15,2.85,2.85,0,0,1,1.77,1,4.68,4.68,0,0,1,.53.71c0,.06.07.11.1.16l.09.14a4,4,0,0,1,.27.47l.56-.78s0,0,0-.07-.14-.24-.2-.33l0-.07h0l-.06-.1a3.19,3.19,0,0,1-.2-.32l1.18-1.87a3.39,3.39,0,0,0,.66.07h0c1.66,0,3.37-.95,3.37-2.54v-.05a10.54,10.54,0,0,0-.17-1.17,3.2,3.2,0,0,1-.09-.53c0-.18.25-.37.6-.37h.54l-.25-1.39a2.82,2.82,0,0,0,1.19-2.31,4.14,4.14,0,0,1,1.49,2.84,5,5,0,0,1-.14,1.29l-.06.2h0a20.62,20.62,0,0,1-.62,2l-.14.36.33.19c.61.34,1,.59,1,1.38a1.92,1.92,0,0,1-1.61,1.75l-1.09.21.92.61a1,1,0,0,1,.47.85,1.07,1.07,0,0,1-1.09,1h-.34l-.1.31c-.33,1.1-.7,1.63-1.87,1.75a7,7,0,0,0,.09-1.11c0-.1,0-.4,0-.5l-.06-1-.72.73a2.29,2.29,0,0,1-1.14.54v-.89l-5.14-1.33-1.82.47a1.38,1.38,0,0,1-.39-1.24M247.11,178l3.69-1,3.69,1Zm7.93-.78-4.24-1.1-4.23,1.1V169.6l4.23-1.1,4.24,1.1Zm2-1.47a2.51,2.51,0,0,0-.14,2.25h-.93v-7.24a3.94,3.94,0,0,0,1-.3,7.43,7.43,0,0,1-.12.9l0,.24-.09.53h.53a4,4,0,0,0,1.84-.36v3a.13.13,0,0,1-.13.14h-.13a2.12,2.12,0,0,0-1.81.82m9.75.19a2.3,2.3,0,0,0-.44,2.06h-5.49a1.92,1.92,0,0,0,1.31-.5,1.68,1.68,0,0,0,.38-1.25s.07-.16.34-.28l.48-.21-.29-.44c-.47-.72-.26-2.3-.08-3.16h0a12.7,12.7,0,0,0,4.34-.79c.33-.11.68-.22,1-.32h0s.38-.12.88-.24l1.8,3v0c.18.26.2.42-.12.8l-.9,1-1.47-.27h0a2,2,0,0,0-1.82.66m.48,2.06a1.58,1.58,0,0,1,.2-1.47,1.15,1.15,0,0,1,1-.37l1.71.32h.28l1.2-1.3,0,0a1.44,1.44,0,0,0,.19-1.89l-1.61-2.65a5.26,5.26,0,0,1,.78-.07h0a3.66,3.66,0,0,1,1.68.5l.46,1c.34.68.76,1.54.88,1.88a.76.76,0,0,1-.25.85L270.7,178Zm10.54,0h-5.84l2.5-2.64a1.68,1.68,0,0,0,.45-1.76,18.68,18.68,0,0,0-.79-1.73,16.63,16.63,0,0,0,5.56,1.12c.37,0,.47.15.54.49l.13,1.32-1.6.36a1.53,1.53,0,0,0-1.15,1,2.21,2.21,0,0,0,.2,1.87m.63-1.55a.64.64,0,0,1,.5-.41l2.4-.54-.22-2.14v0a1.4,1.4,0,0,0-1.36-1.23c-4.28-.34-5.28-1-6.32-1.65h0l-.07,0a4.38,4.38,0,0,0-2.32-.72,11.39,11.39,0,0,0-2.88.52l-1.05.33a11.65,11.65,0,0,1-4.45.74h-.36l-.09.35a7.41,7.41,0,0,0-.09,3.79,1.12,1.12,0,0,0-.47.86c0,.48-.09.59-.13.63a3,3,0,0,1-1.6.26h-.23l-.14.19a1.77,1.77,0,0,1-1.76.52,1.88,1.88,0,0,1,0-1.59,1.33,1.33,0,0,1,1.08-.43H259a1,1,0,0,0,1-1v-3.85a4.12,4.12,0,0,0,.44-.92,2,2,0,0,0,1.66-1.91,1.89,1.89,0,0,0-.31-1,2.7,2.7,0,0,0,1.62-2.39,2.13,2.13,0,0,0-1.1-2,18.49,18.49,0,0,0,.57-1.95l.75-2.69a2.35,2.35,0,0,1,2.24-1.74h13.26a2.79,2.79,0,0,1-2.47,1.16h-8l-.42.9h7.19a2.76,2.76,0,0,1-2.56,1.32h-5.22l-.42.9h4.66a2.8,2.8,0,0,1-2.54,1.27h-2.84l-.42.9h3a.88.88,0,0,1,.1.53,1.06,1.06,0,0,1-1.08,1,1.64,1.64,0,0,1-.68-.18L267,164l-.69.62.39.16a3.27,3.27,0,0,0,1.38.4,1.93,1.93,0,0,0,1.39-.59l2.14.16c.95.08,1.85.16,2.31.18l.66,0,1.12.07c1.81,2.93,2.74,3.32,6.24,3.74.26.45.48.93.7,1.41v5.75c0,.26,0,.35,0,.4a3.11,3.11,0,0,1-.84.46l-3,1.11a1.65,1.65,0,0,1-.38-1.48"/><path class="cls-1" d="M247.61,171.3v-.05h-.09l0,0s0,0,0-.1v-.27l.24-.08a.47.47,0,0,0,.17-.14.33.33,0,0,0,.06-.19.18.18,0,0,0-.09-.18.4.4,0,0,0-.31,0l-.44.11h0v0h0s.07,0,.09,0l0,0a.18.18,0,0,1,0,.09v.66c0,.07,0,.09,0,.1l0,0-.09,0h0v0l.52-.13Zm-.13-.5v-.42h0a.12.12,0,0,1,.13,0s0,.07,0,.14a.3.3,0,0,1-.05.18.2.2,0,0,1-.13.08h0"/><path class="cls-1" d="M247.87,171.19h0v.05l.35-.09v-.05h-.11a.05.05,0,0,1,0,0,.51.51,0,0,1,0-.09l0-.1.34-.09.05.1,0,.05v0a0,0,0,0,1,0,0l-.08,0h0v.05l.49-.13h0v-.05h-.07s0,0-.08-.13l-.34-.73h0l-.37.9a1.12,1.12,0,0,1-.09.17.18.18,0,0,1-.08.07m.31-.4.14-.35.13.28Z"/><path class="cls-1" d="M249.39,170.79h-.12s0,0,0,0,0-.05.07-.13l.15-.22.13.17,0,.07v0a0,0,0,0,1,0,0l-.07,0h0v0l.49-.12h0v0h0a.07.07,0,0,1-.06,0s0,0-.09-.09l-.27-.34.19-.28.1-.13a.23.23,0,0,1,0-.05l.07,0h0v-.05l-.38.1v0h.11v0s0,.06-.08.16l-.1.15-.11-.16-.05-.06v0a0,0,0,0,1,0,0l.06,0h0v0l-.5.13h0v0h.06l0,0,.07.09.24.31-.19.29-.14.18-.1.06h0v0l.4-.1Z"/><path class="cls-1" d="M247.75,171.84s.07,0,.09,0a.1.1,0,0,1,.07,0,.35.35,0,0,1,.05.12h0v-.3l-.9.24h0v.29h0a.41.41,0,0,1,.08-.19.26.26,0,0,1,.14-.07l.06,0v.77a.31.31,0,0,1,0,.09s0,0,0,0,0,0-.06,0h0v0l.53-.13h0v0h-.1s0,0,0,0a.21.21,0,0,1,0-.09v-.77Z"/><path class="cls-1" d="M248.5,171.66l0,0,.06,0h0v-.05l-.53.14h0v.05h.1l0,0v.76c0,.06,0,.08,0,.09a.05.05,0,0,1,0,0l-.07,0h0v0l.53-.14h0v0h-.11a0,0,0,0,1,0,0s0,0,0-.09v-.67a.41.41,0,0,1,0-.09"/><path class="cls-1" d="M248.83,172.42l0,0-.09,0h0v0l.51-.13a.65.65,0,0,0,.33-.18.32.32,0,0,0,.1-.21.18.18,0,0,0-.09-.17.32.32,0,0,0-.16,0,.74.74,0,0,0,.16-.12.3.3,0,0,0,0-.15.2.2,0,0,0,0-.13.24.24,0,0,0-.12-.07,1,1,0,0,0-.24,0l-.48.12h0v.05h.09l0,0s0,0,0,.1v.66a.58.58,0,0,1,0,.1m.26-.48.16,0a.16.16,0,0,1,.08.05.21.21,0,0,1,0,.12.2.2,0,0,1,0,.11.23.23,0,0,1-.07.1l-.11,0a0,0,0,0,1-.05,0,.07.07,0,0,1,0,0Zm.22-.22a.31.31,0,0,1-.07.09l-.14.06v-.38a.3.3,0,0,1,.15,0,.09.09,0,0,1,.06,0,.15.15,0,0,1,0,.1.2.2,0,0,1,0,.11"/><path class="cls-1" d="M250.11,171.25s0,0,0,0,0,0,.06,0h0v0l-.53.13h0v.05h.1l0,0a.18.18,0,0,1,0,.09v.66c0,.07,0,.09,0,.1a.05.05,0,0,1,0,0l-.06,0h0v0l.53-.14h0v-.05h-.11l0,0v-.75c0-.06,0-.09,0-.09"/><path class="cls-1" d="M250.48,173.56h-.06l-.07-.06-.22-.27a.36.36,0,0,0,.13-.11.29.29,0,0,0,.09-.21.25.25,0,0,0,0-.15.2.2,0,0,0-.14-.06.79.79,0,0,0-.27,0l-.46.12h0v.05h.1l0,0a.45.45,0,0,1,0,.1v.66a.58.58,0,0,0,0,.1s0,0,0,0l-.07,0h-.06a.26.26,0,0,1-.08-.12L249,173h0l-.37.9-.09.18a.15.15,0,0,1-.09.06h-.07l0,0s0,0,0-.09v-.67a.41.41,0,0,1,0-.09s0,0,0,0a.07.07,0,0,1,.06,0l0,0v0l-.41.11h0l-.27.72-.26-.58-.41.1h0v0h.1s0,0,0,0v.73a.42.42,0,0,0,0,.07.11.11,0,0,1,0,.06l0,0-.06,0h0v.05l.35-.09h0v0h-.1s0,0,0,0v-.76l.35.78h0l.38-1,0,.7c0,.06,0,.08,0,.09a.05.05,0,0,1,0,0l-.07,0h0v.05l.5-.13h0l.34-.09h0V174h-.11s0,0,0,0a.31.31,0,0,1,0-.08l0-.11.34-.09,0,.11a.12.12,0,0,0,0,.05v0a0,0,0,0,1,0,0,.15.15,0,0,1-.08,0h0v0l.46-.12h0l.48-.12h0v-.05h0l-.07,0h0l0,0a.18.18,0,0,1,0-.09v-.28h0l.31.37h0l.31-.09h0v0Zm-.39-.6a.29.29,0,0,1,0,.14.2.2,0,0,1-.08.08l-.15.06h0v-.43l.07,0a.25.25,0,0,1,.16,0,.17.17,0,0,1,.05.15m-1.13.68-.27.07.14-.35"/><path class="cls-1" d="M248,174.73a.08.08,0,0,1,0,.06l0,0h-.08a.59.59,0,0,0-.23,0,.78.78,0,0,0-.27.14.89.89,0,0,0-.21.26.67.67,0,0,0-.08.3.4.4,0,0,0,.07.24.32.32,0,0,0,.19.15h.12l.17,0a.68.68,0,0,0,.21-.1.94.94,0,0,0,.18-.17h0v-.12l0,0a.73.73,0,0,1-.16.18.56.56,0,0,1-.17.09.27.27,0,0,1-.18,0,.22.22,0,0,1-.1-.14.55.55,0,0,1,0-.23.58.58,0,0,1,0-.26.39.39,0,0,1,.11-.17.42.42,0,0,1,.17-.1.25.25,0,0,1,.19,0,.29.29,0,0,1,.11.18h0v-.38l0,0Z"/><path class="cls-1" d="M249,175.18a.71.71,0,0,1-.12.23.52.52,0,0,1-.22.12h-.12l0,0v-.38a.17.17,0,0,1,.1,0s0,0,.06,0a.35.35,0,0,1,0,.13h.05v-.55h-.05a.53.53,0,0,1-.06.19.22.22,0,0,1-.13.09h0v-.39l.1,0a.3.3,0,0,1,.15,0,.17.17,0,0,1,.1,0,.32.32,0,0,1,0,.14H249v-.32l-.85.22h0v0h.12a0,0,0,0,1,0,0v.75c0,.06,0,.09,0,.09s0,0,0,0a.09.09,0,0,1-.06,0h0v0l.87-.22h0l.06-.36-.05,0Z"/><path class="cls-1" d="M250.35,174.82a.44.44,0,0,1-.34.35l-.06,0h0a0,0,0,0,1,0,0s0,0,0-.09v-.28H250a.15.15,0,0,1,.06.05.28.28,0,0,1,0,.13h.05v-.55h-.05a.43.43,0,0,1,0,.19.18.18,0,0,1-.13.09h0v-.39l.1,0,.15,0a.15.15,0,0,1,.1,0s0,.07.06.14h0v-.32l-.84.21h0v0h.11l0,0a.2.2,0,0,1,0,.08l0,.67v.09l0,0-.07,0h0v0l.87-.23h0l.05-.35Z"/><path class="cls-1" d="M251.59,170.72h0L252,170a.69.69,0,0,1,.09-.15.11.11,0,0,1,.08,0h0v0l-.34-.09v.05h0l.08,0,0,0a.08.08,0,0,1,0,0v0l0,.1-.18.38-.22-.54a.82.82,0,0,1,0-.11s0,0,0,0a0,0,0,0,1,0,0h.11v-.05l-.49-.13v.05h0a.13.13,0,0,1,.07,0l.09.19Z"/><path class="cls-1" d="M252,170.76h0v0l.35.09v0h0l-.1,0a.09.09,0,0,1,0-.06.19.19,0,0,1,0-.07l0-.09.34.09,0,.14,0,.06v0a0,0,0,0,1,0,0h-.11v0l.5.13V171h0s-.06,0-.07,0a1.12,1.12,0,0,1-.09-.17l-.38-.92h0l-.33.72a.79.79,0,0,1-.08.13l-.08,0m.29-.24.13-.28.14.35Z"/><path class="cls-1" d="M253.13,170.11l.06,0a.22.22,0,0,1,.06.07l0,0,0,.71c0,.05,0,.09,0,.1a.11.11,0,0,1-.1,0h0v0l.37.09v0h0l-.09,0a.22.22,0,0,1,0-.13v-.61l.67,1h0l0-.86c0-.05,0-.08,0-.09s0,0,0,0h.09v0l-.35-.09v0h0a.23.23,0,0,1,.11.07.23.23,0,0,1,0,.13v.4l-.49-.73h0l-.37-.1v.05Z"/><path class="cls-1" d="M251.32,172a.75.75,0,0,0,.16.15,1,1,0,0,0,.23.1l.2,0h0l.17,0h0V172l0,0h.08v0l-.47-.12v0h0l.06,0,0,0v.27h-.13a.34.34,0,0,1-.16-.1.33.33,0,0,1-.11-.18,1,1,0,0,1,0-.26.58.58,0,0,1,0-.23.19.19,0,0,1,.25-.16.47.47,0,0,1,.2.12.72.72,0,0,1,.14.26h0l0,0v-.37H252a.11.11,0,0,1,0,0h0l-.08-.05-.1-.06-.12,0a.41.41,0,0,0-.38.06.39.39,0,0,0-.14.35.7.7,0,0,0,.05.25,1,1,0,0,0,.11.17"/><path class="cls-1" d="M253,172.59l0-.33H253a.24.24,0,0,1-.11.16.32.32,0,0,1-.22,0l-.06,0,0,0,0,0a.45.45,0,0,1,0-.1V172a.19.19,0,0,1,.09,0,.35.35,0,0,1,.07.09.57.57,0,0,1,0,.15h0v-.54h-.05a.27.27,0,0,1,0,.16s-.06,0-.12,0h0v-.39l.09,0,.16.05a.32.32,0,0,1,.1.1.46.46,0,0,1,.07.17h0v-.32h0l-.85-.22v0l0,0a.15.15,0,0,1,.08,0,.08.08,0,0,1,0,.05s0,0,0,.08l0,.67a.2.2,0,0,1,0,.08s0,0,0,0h-.11v.05l.87.22Z"/><path class="cls-1" d="M254,172.47h0a.49.49,0,0,1-.07.16.09.09,0,0,1-.08.06h-.13l-.09,0-.08,0s0,0,0,0,0,0,0-.09l0-.65c0-.06,0-.08,0-.09l0,0a.06.06,0,0,1,.06,0l.06,0v0l-.55-.14v0h0l.06,0,0,0s0,0,0,.1l0,.67v.08s0,0,0,0h-.11v0l.89.23h0l0-.35Z"/><path class="cls-1" d="M254,171.86h0a.09.09,0,0,1,.06,0s0,0,0,0a.31.31,0,0,1,0,.09l0,.67c0,.06,0,.08,0,.08s0,0,0,0h-.06l0,0v.05l.53.14h0v0h0a.06.06,0,0,1-.06,0l0,0a.22.22,0,0,1,0-.1l0-.67V172l0,0h.06l0,0V172l-.53-.14Z"/><path class="cls-1" d="M251.59,173.68a.33.33,0,0,1-.19-.13.49.49,0,0,1-.13-.27h-.05v.39h.05s0,0,0,0h0l.06,0,.1.06a.16.16,0,0,0,.09,0l.11,0a.33.33,0,0,0,.14,0,.24.24,0,0,0,.1-.21.3.3,0,0,0-.07-.19.88.88,0,0,0-.24-.23l-.16-.13-.07-.08a.13.13,0,0,1,0-.06.08.08,0,0,1,0-.08.11.11,0,0,1,.1,0,.36.36,0,0,1,.18.12.49.49,0,0,1,.11.23h.05l0-.35h0a.18.18,0,0,0,0,.05h0l-.06,0-.09-.06a.29.29,0,0,0-.1,0,.21.21,0,0,0-.22,0,.21.21,0,0,0-.09.19.43.43,0,0,0,0,.14,1,1,0,0,0,.09.13l.2.17.14.11s0,.05.06.08a.19.19,0,0,1,0,.07.1.1,0,0,1,0,.08.12.12,0,0,1-.12,0"/><path class="cls-1" d="M252.74,173.09a.34.34,0,0,1,.08.09l.05.14h0v-.29h0l-.9-.24h0v.29h0l.05,0v0a.21.21,0,0,1,.07-.14.2.2,0,0,1,.14,0l.06,0,0,.78v.08s0,0,0,0h-.07l0,0v0l.53.14h0V174h0a.09.09,0,0,1-.07,0l0,0a.41.41,0,0,1,0-.09l0-.77h.06l.1,0"/><path class="cls-1" d="M253.6,174.19h-.1v0l.49.13h0v0h0a.18.18,0,0,1-.07-.05.53.53,0,0,1-.08-.17l-.38-.92h0l-.34.72a.29.29,0,0,1-.08.13.07.07,0,0,1-.08,0h0v.05l.34.08h0v0h0l-.1,0a.09.09,0,0,1,0-.07.25.25,0,0,1,0-.07l0-.08.34.09.06.13,0,.06v0s0,0,0,0m-.1-.33-.28-.07.13-.28Z"/><path class="cls-1" d="M254.06,174.91v0l-.3-.07h0v.05h0l.08,0,0,0a.06.06,0,0,1,0,0v0a.49.49,0,0,1,0,.1l-.15.38-.19-.53a.94.94,0,0,1,0-.1s0,0,0,0,0,0,0,0h.1v-.05l-.42-.11h0l-.73-.19h0l-.31-.08-.22.59-.26-.71h0l-.36-.1h0v0h0a.09.09,0,0,1,.06,0s0,0,0,0,0,0,0,.1l0,.64v.07a.08.08,0,0,1,0,0s0,0,0,0h-.07v0l.31.08h0v-.05h0l-.08-.05s0,0,0-.06V175l0-.66.35,1h0l.3-.79,0,.7c0,.06,0,.08,0,.09a0,0,0,0,1,0,0H252v0l.42.11.77.2,0-.33h0a.23.23,0,0,1-.09.16.24.24,0,0,1-.19,0l-.05,0-.06,0,0,0v-.38l.08,0,.06.09a.49.49,0,0,1,0,.14h0l0-.54h0a.46.46,0,0,1,0,.16.1.1,0,0,1-.11,0h0v-.4l.08,0,.14,0,.09.09a.38.38,0,0,1,.06.17h0v-.27a.1.1,0,0,1,0,0,1.16,1.16,0,0,1,.08.19l.32.88h0l.28-.7a.84.84,0,0,1,.08-.15.08.08,0,0,1,.08,0Zm-1.65.5-.06,0s0,0,0,0,0,0,0-.1l0-.66v-.09l0,0h.08l.06,0a.05.05,0,0,1,0,0s0,0,0,.08l0,.67a.41.41,0,0,1,0,.09,0,0,0,0,1,0,0h-.07Z"/><path class="cls-1" d="M254.57,175.54a1.11,1.11,0,0,0-.22-.22l-.14-.12-.06-.08a.14.14,0,0,1,0-.06.1.1,0,0,1,0-.08.11.11,0,0,1,.1,0,.28.28,0,0,1,.16.11.46.46,0,0,1,.09.23h.05l0-.35h0l0,0s0,0,0,0l-.06,0-.07-.06-.09,0a.2.2,0,0,0-.2,0,.21.21,0,0,0-.07.19.32.32,0,0,0,0,.14.57.57,0,0,0,.08.13,1.64,1.64,0,0,0,.18.16l.12.11a.35.35,0,0,1,.05.08.14.14,0,0,1,0,.07.09.09,0,0,1,0,.08.11.11,0,0,1-.1,0,.41.41,0,0,1-.18-.13.67.67,0,0,1-.11-.27h0v.4h0l0,0h0a.05.05,0,0,1,0,0h0l0,0,.1.06.08,0h.08a.22.22,0,0,0,.14-.05.24.24,0,0,0,.09-.2.66.66,0,0,0-.06-.2"/></svg>