<svg width="120" height="40" viewBox="0 0 120 40" fill="none" xmlns="http://www.w3.org/2000/svg" >
<g clip-path="url(#clip0_1116_5428)">
<path d="M96.834 35.2438V35.2127C96.834 33.5031 98.1708 32.6629 100.105 32.6629C100.99 32.6629 101.62 32.7968 102.236 32.9928V32.7968C102.236 31.6713 101.545 31.0717 100.27 31.0717C99.5794 31.0717 99.009 31.192 98.5142 31.386C98.4094 31.4171 98.3182 31.4306 98.229 31.4306C97.808 31.4306 97.4646 31.1008 97.4646 30.6797C97.4646 30.3498 97.6896 30.0645 97.9593 29.9578C98.7102 29.6725 99.4746 29.4921 100.509 29.4921C101.694 29.4921 102.581 29.8064 103.136 30.3789C103.722 30.9494 103.991 31.7877 103.991 32.8239V36.7263C103.991 37.2212 103.601 37.5976 103.107 37.5976C102.581 37.5976 102.22 37.2386 102.22 36.8331V36.5342C101.681 37.1785 100.856 37.6888 99.6395 37.6888C98.1553 37.6888 96.834 36.8331 96.834 35.2418M102.267 34.6713V34.1319C101.801 33.9514 101.186 33.8156 100.466 33.8156C99.2942 33.8156 98.6054 34.3104 98.6054 35.1351V35.1662C98.6054 35.9307 99.2806 36.3673 100.15 36.3673C101.349 36.3673 102.267 35.6765 102.267 34.6713Z" fill="#6D6F71"/>
<path d="M106.572 31.1609H106.258C105.839 31.1609 105.493 30.831 105.493 30.4099C105.493 29.9888 105.839 29.6453 106.258 29.6453H106.572V29.0593C106.572 28.1899 106.797 27.5282 107.218 27.1091C107.639 26.688 108.223 26.4784 109.003 26.4784C109.364 26.4784 109.665 26.5094 109.919 26.5541C110.249 26.5987 110.549 26.8975 110.549 27.3051C110.549 27.7126 110.206 28.0696 109.785 28.056C109.68 28.0405 109.531 28.025 109.409 28.025C108.72 28.025 108.359 28.3995 108.359 29.2242V29.6589H109.769C110.204 29.6589 110.534 29.9888 110.534 30.4099C110.534 30.831 110.188 31.1609 109.769 31.1609H108.39V36.6991C108.39 37.194 107.984 37.5995 107.474 37.5995C106.964 37.5995 106.574 37.194 106.574 36.6991V31.1609H106.572Z" fill="#6D6F71"/>
<path d="M111.809 30.4274C111.809 29.917 112.199 29.5115 112.709 29.5115C113.219 29.5115 113.625 29.917 113.625 30.4274V30.9222C114.211 30.0975 115.035 29.4358 116.325 29.4358C118.186 29.4358 120 30.9067 120 33.5478V33.5788C120 36.2063 118.202 37.6908 116.325 37.6908C115.006 37.6908 114.18 37.031 113.625 36.2955V39.1015C113.625 39.6119 113.219 40.0019 112.709 40.0019C112.199 40.0019 111.809 39.6119 111.809 39.1015V30.4274ZM118.155 33.5788V33.5478C118.155 32.0167 117.119 31.0115 115.889 31.0115C114.659 31.0115 113.578 32.0322 113.578 33.5478V33.5788C113.578 35.0944 114.657 36.1151 115.889 36.1151C117.121 36.1151 118.155 35.139 118.155 33.5788Z" fill="#6D6F71"/>
<clipPath id="mask0_1116_5428" style="mask-type:luminance" maskUnits="userSpaceOnUse" x="0" y="0" width="96" height="38">
<path d="M71.9741 1.11194C69.2578 1.76201 65.486 3.29115 63.7456 5.61589C63.3498 6.14177 63.3188 5.80024 63.4721 6.35329C63.5361 6.58227 63.8815 6.86171 64.0231 7.048C64.4732 7.63986 64.8923 8.25306 65.2765 8.89149C65.9711 10.048 66.5473 11.2803 66.9703 12.563C67.108 12.986 67.6746 13.0636 67.9055 12.6833C71.2271 7.23623 79.5021 6.0758 84.1004 10.8029C88.4038 15.2273 88.1205 23.9616 83.4155 28.0056C78.4738 32.2496 69.9601 30.5167 67.3176 24.5341C65.9575 21.4583 66.5163 18.0469 65.682 14.8431C64.8748 11.7479 63.2199 8.98076 60.9711 6.71617C54.4152 0.11839 44.0836 1.7643e-05 36.9669 4.72519C36.6564 2.81378 34.9976 1.35256 32.9992 1.35256C30.7776 1.35256 28.9771 3.15337 28.9771 5.37527C28.9771 5.38885 28.9771 5.40243 28.9771 5.41796C28.9771 5.44124 28.9771 5.46259 28.9771 5.48782C28.9771 6.33194 29.0043 8.93807 28.9771 10.2634C28.9267 12.5591 28.8995 18.4233 28.8782 21.1187C28.7404 22.1802 28.5212 23.2281 28.0924 24.2488C26.8662 27.1751 24.3361 29.3465 21.2221 30.0063C14.249 31.4792 8.60103 26.7501 8.31388 19.7875C8.18388 16.6555 8.22269 9.41738 8.22269 6.26403C8.22269 5.74979 8.23239 5.75561 8.23433 5.76337C8.23627 5.76919 8.23433 5.77501 8.22075 5.5111V5.50528C8.22075 3.28338 6.42023 1.48258 4.19869 1.48258C1.97715 1.48258 0.176639 3.28144 0.176639 5.50334C0.176639 5.51692 0.178579 5.53051 0.178579 5.54409C0.178579 5.56932 0.176639 5.59066 0.176639 5.61395C0.176639 6.45808 0.205742 8.01244 0.176639 9.33587C0.104851 12.6134 0.0815685 15.2836 0.0524653 18.5611C7.96802e-05 24.9338 2.85801 30.8602 8.1994 34.454C13.6921 38.1507 21.42 38.4534 27.2988 35.4844C27.8945 35.1836 28.4668 34.8538 29.012 34.5025C29.4525 36.2451 31.0298 37.5336 32.9118 37.5336C35.1334 37.5336 36.9339 35.7328 36.9339 33.5109C36.9339 33.4973 36.932 33.4837 36.932 33.4682C36.932 33.4449 36.9339 33.4236 36.9339 33.3984C36.9339 32.5542 36.9048 29.9481 36.9339 28.6227C36.9843 26.2534 37.0115 24.2003 37.0328 22.0056C37.1648 21.2196 37.256 20.4201 37.3006 19.6071C37.4558 16.7623 38.0767 13.9737 40.0363 11.7771C42.2908 9.25049 45.6183 8.33068 48.9205 8.64505C52.0695 8.94389 54.9061 10.5681 56.5242 13.3275C58.2102 16.2073 57.8047 19.3296 58.3422 22.4674C59.4558 28.9701 64.2831 34.6228 70.5965 36.6216C77.0438 38.6611 84.4108 37.2406 89.4282 32.6745C94.463 28.0949 96.38 20.9732 94.7793 14.3929C94.0284 11.3036 92.4122 8.50921 90.212 6.22328C86.5955 2.5227 81.6305 0.56665 76.5588 0.56665C75.0299 0.56665 73.4894 0.745179 71.9741 1.10806" fill="white"/>
</clipPath>
<g clip-path="url(#mask0_1116_5428)">
<path d="M96.3799 0H0V38.6649H96.3799V0Z" fill="url(#paint0_linear_1116_5428)"/>
</g>
</g>
<defs>
<linearGradient id="paint0_linear_1116_5428" x1="-0.299918" y1="19.3167" x2="95.0127" y2="19.3167" gradientUnits="userSpaceOnUse">
<stop stop-color="#25A5DE"/>
<stop offset="0.18" stop-color="#26A3DC"/>
<stop offset="0.25" stop-color="#2D9ED8"/>
<stop offset="0.3" stop-color="#3995D0"/>
<stop offset="0.33" stop-color="#4A88C5"/>
<stop offset="0.35" stop-color="#5580BF"/>
<stop offset="0.48" stop-color="#6F73AF"/>
<stop offset="0.5" stop-color="#7471AD"/>
<stop offset="0.58" stop-color="#766FAB"/>
<stop offset="0.63" stop-color="#7E69A8"/>
<stop offset="0.67" stop-color="#8C5FA1"/>
<stop offset="0.68" stop-color="#97589C"/>
<stop offset="0.71" stop-color="#AD4A93"/>
<stop offset="0.74" stop-color="#BE3F8C"/>
<stop offset="0.79" stop-color="#CA3887"/>
<stop offset="0.84" stop-color="#D13484"/>
<stop offset="1" stop-color="#D33384"/>
</linearGradient>
<clipPath id="clip0_1116_5428">
<rect width="120" height="40" fill="white"/>
</clipPath>
</defs>
</svg>
